<?xml version='1.0'?>
<!--
Bitly Generated QR Code
v4
33x33
-->
<svg width='656' height='656'
xmlns='http://www.w3.org/2000/svg'
xmlns:xlink='http://www.w3.org/1999/xlink'>
	<g id='background' style='fill:#ffffff' >
<rect x="0" y="0" width="656" height="656" />
</g>
<g id='pips' style='fill:#000000' >
<path d="M64,224L80,224L80,208L96,208L96,224L112,224L112,208L128,208L144,208L144,192L160,192L176,192L176,208L160,208L160,224L144,224L128,224L128,240L144,240L144,256L144,272L144,288L144,304L128,304L112,304L112,288L96,288L96,272L112,272L112,256L96,256L96,240L80,240L64,240L64,224M64,320L80,320L96,320L96,304L112,304L112,320L112,336L128,336L128,352L144,352L144,368L144,384L128,384L112,384L112,368L112,352L96,352L96,368L96,384L96,400L112,400L112,416L128,416L128,432L112,432L96,432L96,416L80,416L80,432L80,448L96,448L112,448L112,464L96,464L80,464L64,464L64,448L64,432L64,416L64,400L64,384L64,368L80,368L80,352L80,336L64,336L64,320M80,256L96,256L96,272L80,272L80,256M128,320L144,320L160,320L176,320L176,304L192,304L208,304L224,304L224,320L240,320L240,336L224,336L224,352L208,352L208,336L208,320L192,320L192,336L192,352L208,352L208,368L208,384L224,384L224,368L240,368L240,384L240,400L240,416L256,416L272,416L288,416L304,416L304,432L320,432L320,448L304,448L288,448L288,432L272,432L256,432L240,432L224,432L224,416L224,400L208,400L208,416L192,416L192,432L176,432L160,432L160,416L176,416L176,400L160,400L144,400L144,384L160,384L176,384L176,368L160,368L160,352L176,352L176,336L160,336L160,352L144,352L144,336L128,336L128,320M144,432L160,432L160,448L176,448L192,448L192,432L208,432L224,432L224,448L208,448L208,464L224,464L240,464L256,464L272,464L272,480L272,496L272,512L288,512L288,528L272,528L256,528L256,544L272,544L272,560L272,576L272,592L256,592L256,576L256,560L240,560L224,560L224,544L208,544L208,528L224,528L240,528L240,512L256,512L256,496L240,496L224,496L224,512L208,512L192,512L192,496L208,496L208,480L192,480L192,464L176,464L160,464L144,464L144,448L144,432M160,224L176,224L176,240L160,240L160,224M160,256L176,256L176,272L160,272L160,256M160,288L176,288L176,304L160,304L160,288M176,272L192,272L192,256L208,256L208,240L224,240L224,256L224,272L240,272L240,288L224,288L208,288L192,288L176,288L176,272M192,64L208,64L224,64L224,80L208,80L192,80L192,64M192,96L208,96L208,112L192,112L192,96M192,128L208,128L208,144L192,144L192,128M192,160L208,160L208,176L208,192L192,192L192,176L192,160M192,208L208,208L208,192L224,192L224,208L224,224L208,224L192,224L192,208M208,112L224,112L240,112L240,128L256,128L256,144L272,144L272,160L272,176L256,176L256,160L240,160L240,144L224,144L224,128L208,128L208,112M208,144L224,144L224,160L208,160L208,144M208,560L224,560L224,576L224,592L208,592L208,576L208,560M224,80L240,80L240,64L256,64L256,80L256,96L272,96L272,112L288,112L288,96L304,96L304,80L320,80L320,64L336,64L336,80L352,80L352,96L352,112L352,128L336,128L320,128L320,144L320,160L304,160L304,176L288,176L288,160L288,144L288,128L272,128L256,128L256,112L240,112L240,96L224,96L224,80M224,160L240,160L240,176L256,176L256,192L240,192L224,192L224,176L224,160M224,224L240,224L240,240L224,240L224,224M240,208L256,208L272,208L272,192L272,176L288,176L288,192L304,192L304,176L320,176L320,192L336,192L336,176L352,176L352,192L352,208L352,224L368,224L384,224L384,240L368,240L352,240L336,240L336,224L336,208L320,208L304,208L288,208L288,224L304,224L320,224L320,240L304,240L288,240L272,240L272,224L256,224L240,224L240,208M272,80L288,80L288,96L272,96L272,80M288,480L304,480L304,464L320,464L320,480L320,496L304,496L304,512L288,512L288,496L288,480M288,528L304,528L304,544L320,544L320,560L304,560L288,560L288,544L288,528M288,576L304,576L320,576L336,576L336,592L320,592L304,592L288,592L288,576M304,512L320,512L320,528L304,528L304,512M320,160L336,160L336,176L320,176L320,160M320,496L336,496L336,512L320,512L320,496M320,528L336,528L336,544L320,544L320,528M336,144L352,144L352,160L336,160L336,144M336,480L352,480L368,480L368,496L352,496L336,496L336,480M336,544L352,544L352,560L368,560L368,576L352,576L336,576L336,560L336,544M352,160L368,160L368,176L352,176L352,160M352,416L368,416L368,432L384,432L400,432L400,448L384,448L368,448L352,448L352,432L352,416M352,512L368,512L368,528L352,528L352,512M368,64L384,64L400,64L400,80L384,80L384,96L368,96L368,80L368,64M368,144L384,144L384,160L368,160L368,144M368,176L384,176L384,192L368,192L368,176M368,464L384,464L400,464L416,464L432,464L432,448L448,448L448,432L464,432L464,448L480,448L496,448L496,432L496,416L512,416L512,432L512,448L528,448L528,464L528,480L528,496L544,496L544,480L560,480L576,480L576,496L576,512L592,512L592,528L576,528L576,544L592,544L592,560L576,560L560,560L560,544L560,528L560,512L544,512L528,512L528,528L544,528L544,544L544,560L544,576L528,576L528,560L512,560L512,544L496,544L496,528L480,528L480,544L464,544L464,560L448,560L448,544L432,544L432,528L448,528L448,512L448,496L432,496L432,512L432,528L416,528L416,544L400,544L400,560L400,576L400,592L384,592L384,576L384,560L384,544L384,528L384,512L400,512L400,496L416,496L416,480L400,480L400,496L384,496L384,480L368,480L368,464M368,496L384,496L384,512L368,512L368,496M384,160L400,160L400,176L384,176L384,160M400,80L416,80L416,64L432,64L432,80L432,96L448,96L448,80L448,64L464,64L464,80L464,96L464,112L464,128L448,128L432,128L432,144L416,144L416,160L400,160L400,144L400,128L400,112L400,96L400,80M400,224L416,224L416,240L400,240L400,224M400,416L416,416L416,400L416,384L416,368L416,352L432,352L432,336L432,320L448,320L448,336L464,336L464,352L448,352L448,368L464,368L464,384L448,384L432,384L432,400L432,416L432,432L432,448L416,448L416,432L400,432L400,416M416,160L432,160L432,176L416,176L416,160M416,240L432,240L448,240L448,256L432,256L432,272L448,272L448,256L464,256L464,272L464,288L448,288L432,288L432,304L416,304L416,288L416,272L416,256L416,240M416,560L432,560L448,560L448,576L464,576L464,592L448,592L432,592L416,592L416,576L416,560M432,144L448,144L464,144L464,160L464,176L448,176L448,160L432,160L432,144M432,176L448,176L448,192L448,208L448,224L432,224L432,208L432,192L432,176M448,304L464,304L464,320L448,320L448,304M448,400L464,400L464,416L448,416L448,400M464,464L464,480L464,496L464,512L480,512L496,512L512,512L512,496L512,480L512,464L496,464L480,464L464,464M464,208L480,208L480,224L496,224L496,208L512,208L512,192L528,192L528,208L528,224L512,224L512,240L512,256L496,256L496,272L496,288L480,288L480,272L480,256L480,240L464,240L464,224L464,208M464,288L480,288L480,304L464,304L464,288M464,320L480,320L480,336L464,336L464,320M464,384L480,384L480,368L496,368L496,384L512,384L512,368L512,352L528,352L544,352L560,352L560,368L576,368L576,384L560,384L544,384L544,400L528,400L528,416L512,416L512,400L496,400L496,416L480,416L480,400L464,400L464,384M464,560L480,560L496,560L496,576L480,576L464,576L464,560M480,192L496,192L496,208L480,208L480,192M480,304L496,304L496,320L480,320L480,304M480,480L496,480L496,496L480,496L480,480M496,320L512,320L512,304L528,304L528,320L528,336L512,336L512,352L496,352L496,336L496,320M512,256L528,256L528,272L512,272L512,256M528,240L544,240L560,240L560,256L576,256L576,240L592,240L592,256L592,272L592,288L576,288L576,272L560,272L560,288L544,288L544,272L544,256L528,256L528,240M528,416L544,416L560,416L576,416L576,432L576,448L560,448L544,448L528,448L528,432L528,416M544,192L560,192L560,208L560,224L544,224L544,208L544,192M544,304L560,304L560,288L576,288L576,304L576,320L560,320L560,336L544,336L544,320L544,304M544,576L560,576L576,576L576,592L560,592L544,592L544,576M560,224L576,224L576,240L560,240L560,224M560,336L576,336L576,320L592,320L592,336L592,352L592,368L576,368L576,352L560,352L560,336M576,192L592,192L592,208L576,208L576,192M576,400L592,400L592,416L576,416L576,400M576,448L592,448L592,464L592,480L576,480L576,464L576,448Z" />
</g>
<g id='corners-outer-1' style='fill:#000000' >
<path d="M64,64L80,64L96,64L112,64L128,64L144,64L160,64L176,64L176,80L176,96L176,112L176,128L176,144L176,160L176,176L160,176L144,176L128,176L112,176L96,176L80,176L64,176L64,160L64,144L64,128L64,112L64,96L64,80L64,64M80,80L80,96L80,112L80,128L80,144L80,160L96,160L112,160L128,160L144,160L160,160L160,144L160,128L160,112L160,96L160,80L144,80L128,80L112,80L96,80L80,80Z" />
</g>
<g id='corners-outer-2' style='fill:#000000' >
<path d="M480,64L496,64L512,64L528,64L544,64L560,64L576,64L592,64L592,80L592,96L592,112L592,128L592,144L592,160L592,176L576,176L560,176L544,176L528,176L512,176L496,176L480,176L480,160L480,144L480,128L480,112L480,96L480,80L480,64M496,80L496,96L496,112L496,128L496,144L496,160L512,160L528,160L544,160L560,160L576,160L576,144L576,128L576,112L576,96L576,80L560,80L544,80L528,80L512,80L496,80Z" />
</g>
<g id='corners-outer-3' style='fill:#000000' >
<path d="M64,480L80,480L96,480L112,480L128,480L144,480L160,480L176,480L176,496L176,512L176,528L176,544L176,560L176,576L176,592L160,592L144,592L128,592L112,592L96,592L80,592L64,592L64,576L64,560L64,544L64,528L64,512L64,496L64,480M80,496L80,512L80,528L80,544L80,560L80,576L96,576L112,576L128,576L144,576L160,576L160,560L160,544L160,528L160,512L160,496L144,496L128,496L112,496L96,496L80,496Z" />
</g>
<g id='corners-inner-1' style='fill:#000000' >
<path d="M96,96L112,96L128,96L144,96L144,112L144,128L144,144L128,144L112,144L96,144L96,128L96,112L96,96Z" />
</g>
<g id='corners-inner-2' style='fill:#000000' >
<path d="M512,96L528,96L544,96L560,96L560,112L560,128L560,144L544,144L528,144L512,144L512,128L512,112L512,96Z" />
</g>
<g id='corners-inner-3' style='fill:#000000' >
<path d="M96,512L112,512L128,512L144,512L144,528L144,544L144,560L128,560L112,560L96,560L96,544L96,528L96,512Z" />
</g>
<g id='logo-svg' style='fill:#000000' >
<g transform='translate(248 248) scale(2.86 2.86)'>
<!-- Bitly Logo © Bitly Inc. -->
<path d="M9.31878 48.9865C3.10626 42.988 0 36.1445 0 28.4561C0 12.0273 12.7429 -6.10352e-05 27.9038 -6.10352e-05C43.222 -6.10352e-05 56 12.0273 56 28.4561C56 43.9845 42.2998 55.9999 30.3344 55.9999C25.3785 55.9999 21.7986 54.1257 19.9264 51.2073C19.2638 50.1744 18.6731 48.5091 18.5538 47.5C18.4743 46.8272 18.4743 44.5948 18.5538 40.803C18.5538 38.5939 18.5538 35.7708 18.5538 32.3338C18.6243 27.2183 19.1702 20.4505 17.1419 22.0106C16.5405 22.591 16.2984 23.1945 15.0104 23.2496C13.7215 23.1556 13.359 21.7746 13.572 21.0316C14.3367 18.365 16.5852 16.2288 20.1575 16.6144C23.7298 17 25.1038 19.3651 25.1982 22.558C25.1982 26.4187 25.1038 30.6312 25.1038 31.1207V31.5341C25.1214 31.9177 25.0658 32.228 25.5175 31.9709C25.9795 31.6568 26.378 31.3845 26.7129 31.1542C29.158 29.3012 35.1582 27.3465 39.8148 31.9709C41.5869 33.7308 43.7689 37.552 42.4984 43.4485C42.2943 44.0664 42.4578 44.1482 42.9889 43.6939C43.4275 43.2567 49.439 37.8413 49.439 27.5934C49.439 16.106 39.3669 6.51595 27.9038 6.51595C17.915 6.51595 6.4838 14.4679 6.4838 28.4561C6.4838 32.802 8.0413 38.1773 11.8543 42.3753C12.4772 43.0908 12.9493 43.5933 13.2706 43.8829C15.0104 45.3792 15.2394 47.2625 14.0834 48.631C12.5973 50.1303 11.0092 50.2488 9.31878 48.9865ZM30.4069 49.6219C35.5961 49.5381 36.433 44.1463 36.4609 41.1012C36.4609 36.6034 34.1732 35.011 30.7417 35.7094C27.9798 36.2682 25.1899 39.1456 24.8831 43.1406C24.8273 43.8111 24.7994 44.9006 24.8552 45.9342C24.9946 48.672 27.2823 49.6778 30.4069 49.6219Z" />
</g></g>
</svg>
