<svg width="258" height="253" viewBox="0 0 258 253" fill="none" xmlns="http://www.w3.org/2000/svg">
<path d="M3.05682 12V3.27273H8.28977V4.21023H4.11364V7.15909H7.89773V8.09659H4.11364V12H3.05682ZM9.96342 12V5.45455H10.9691V12H9.96342ZM10.4748 4.36364C10.2788 4.36364 10.1097 4.29688 9.96768 4.16335C9.82848 4.02983 9.75888 3.86932 9.75888 3.68182C9.75888 3.49432 9.82848 3.33381 9.96768 3.20028C10.1097 3.06676 10.2788 3 10.4748 3C10.6708 3 10.8384 3.06676 10.9776 3.20028C11.1197 3.33381 11.1907 3.49432 11.1907 3.68182C11.1907 3.86932 11.1197 4.02983 10.9776 4.16335C10.8384 4.29688 10.6708 4.36364 10.4748 4.36364ZM12.8111 12V5.45455H13.7827V6.44318H13.8509C13.9702 6.11932 14.1861 5.85653 14.4986 5.65483C14.8111 5.45312 15.1634 5.35227 15.5554 5.35227C15.6293 5.35227 15.7216 5.35369 15.8324 5.35653C15.9432 5.35937 16.027 5.36364 16.0838 5.36932V6.39205C16.0497 6.38352 15.9716 6.37074 15.8494 6.35369C15.7301 6.33381 15.6037 6.32386 15.4702 6.32386C15.152 6.32386 14.8679 6.39062 14.6179 6.52415C14.3707 6.65483 14.1747 6.83665 14.0298 7.0696C13.8878 7.29972 13.8168 7.5625 13.8168 7.85795V12H12.8111ZM21.9123 6.92045L21.0089 7.17614C20.9521 7.02557 20.8683 6.87926 20.7575 6.73722C20.6495 6.59233 20.5018 6.47301 20.3143 6.37926C20.1268 6.28551 19.8867 6.23864 19.5941 6.23864C19.1935 6.23864 18.8597 6.33097 18.5927 6.51562C18.3285 6.69744 18.1964 6.92898 18.1964 7.21023C18.1964 7.46023 18.2873 7.65767 18.4691 7.80256C18.6509 7.94744 18.935 8.06818 19.3214 8.16477L20.293 8.40341C20.8782 8.54545 21.3143 8.76278 21.6012 9.0554C21.8881 9.34517 22.0316 9.71875 22.0316 10.1761C22.0316 10.5511 21.9237 10.8864 21.7077 11.1818C21.4947 11.4773 21.1964 11.7102 20.8129 11.8807C20.4293 12.0511 19.9833 12.1364 19.4748 12.1364C18.8072 12.1364 18.2546 11.9915 17.8171 11.7017C17.3796 11.4119 17.1026 10.9886 16.9862 10.4318L17.9407 10.1932C18.0316 10.5455 18.2035 10.8097 18.4563 10.9858C18.712 11.1619 19.0458 11.25 19.4577 11.25C19.9265 11.25 20.2987 11.1506 20.5742 10.9517C20.8526 10.75 20.9918 10.5085 20.9918 10.2273C20.9918 10 20.9123 9.80966 20.7532 9.65625C20.5941 9.5 20.3498 9.38352 20.0202 9.30682L18.9293 9.05114C18.3299 8.90909 17.8896 8.68892 17.6083 8.39062C17.3299 8.08949 17.1907 7.71307 17.1907 7.26136C17.1907 6.89205 17.2944 6.56534 17.5018 6.28125C17.712 5.99716 17.9975 5.77415 18.3583 5.61222C18.7219 5.45028 19.1339 5.36932 19.5941 5.36932C20.2418 5.36932 20.7504 5.51136 21.1197 5.79545C21.4918 6.07955 21.756 6.45455 21.9123 6.92045ZM26.392 5.45455V6.30682H23V5.45455H26.392ZM23.9886 3.88636H24.9943V10.125C24.9943 10.4091 25.0355 10.6222 25.1179 10.7642C25.2031 10.9034 25.3111 10.9972 25.4418 11.0455C25.5753 11.0909 25.7159 11.1136 25.8636 11.1136C25.9744 11.1136 26.0653 11.108 26.1364 11.0966C26.2074 11.0824 26.2642 11.071 26.3068 11.0625L26.5114 11.9659C26.4432 11.9915 26.348 12.017 26.2259 12.0426C26.1037 12.071 25.9489 12.0852 25.7614 12.0852C25.4773 12.0852 25.1989 12.0241 24.9261 11.902C24.6563 11.7798 24.4318 11.5938 24.2528 11.3438C24.0767 11.0938 23.9886 10.7784 23.9886 10.3977V3.88636ZM36.6321 5.45455L34.2116 12H33.1889L30.7685 5.45455H31.8594L33.6662 10.6705H33.7344L35.5412 5.45455H36.6321ZM40.4695 12.1364C39.8388 12.1364 39.2947 11.9972 38.8374 11.7188C38.3828 11.4375 38.032 11.0455 37.7848 10.5426C37.5405 10.0369 37.4183 9.44886 37.4183 8.77841C37.4183 8.10795 37.5405 7.51705 37.7848 7.00568C38.032 6.49148 38.3757 6.09091 38.8161 5.80398C39.2592 5.5142 39.7763 5.36932 40.3672 5.36932C40.7081 5.36932 41.0447 5.42614 41.3771 5.53977C41.7095 5.65341 42.0121 5.83807 42.2848 6.09375C42.5575 6.34659 42.7749 6.68182 42.9368 7.09943C43.0987 7.51705 43.1797 8.03125 43.1797 8.64205V9.06818H38.1342V8.19886H42.157C42.157 7.82955 42.0831 7.5 41.9354 7.21023C41.7905 6.92045 41.5831 6.69176 41.3132 6.52415C41.0462 6.35653 40.7308 6.27273 40.3672 6.27273C39.9666 6.27273 39.62 6.37216 39.3274 6.57102C39.0376 6.76705 38.8146 7.02273 38.6584 7.33807C38.5021 7.65341 38.424 7.99148 38.424 8.35227V8.93182C38.424 9.42614 38.5092 9.84517 38.6797 10.1889C38.853 10.5298 39.093 10.7898 39.3999 10.9688C39.7067 11.1449 40.0632 11.233 40.4695 11.233C40.7337 11.233 40.9723 11.196 41.1854 11.1222C41.4013 11.0455 41.5874 10.9318 41.7436 10.7812C41.8999 10.6278 42.0206 10.4375 42.1058 10.2102L43.0774 10.483C42.9751 10.8125 42.8033 11.1023 42.5618 11.3523C42.3203 11.5994 42.022 11.7926 41.6669 11.9318C41.3118 12.0682 40.9126 12.1364 40.4695 12.1364ZM44.7095 12V5.45455H45.6811V6.44318H45.7493C45.8686 6.11932 46.0845 5.85653 46.397 5.65483C46.7095 5.45312 47.0618 5.35227 47.4538 5.35227C47.5277 5.35227 47.62 5.35369 47.7308 5.35653C47.8416 5.35937 47.9254 5.36364 47.9822 5.36932V6.39205C47.9482 6.38352 47.87 6.37074 47.7479 6.35369C47.6286 6.33381 47.5021 6.32386 47.3686 6.32386C47.0504 6.32386 46.7663 6.39062 46.5163 6.52415C46.2692 6.65483 46.0732 6.83665 45.9283 7.0696C45.7862 7.29972 45.7152 7.5625 45.7152 7.85795V12H44.7095ZM53.8107 6.92045L52.9073 7.17614C52.8505 7.02557 52.7667 6.87926 52.6559 6.73722C52.5479 6.59233 52.4002 6.47301 52.2127 6.37926C52.0252 6.28551 51.7852 6.23864 51.4925 6.23864C51.092 6.23864 50.7582 6.33097 50.4911 6.51562C50.2269 6.69744 50.0948 6.92898 50.0948 7.21023C50.0948 7.46023 50.1857 7.65767 50.3675 7.80256C50.5494 7.94744 50.8335 8.06818 51.2198 8.16477L52.1914 8.40341C52.7766 8.54545 53.2127 8.76278 53.4996 9.0554C53.7866 9.34517 53.93 9.71875 53.93 10.1761C53.93 10.5511 53.8221 10.8864 53.6062 11.1818C53.3931 11.4773 53.0948 11.7102 52.7113 11.8807C52.3278 12.0511 51.8817 12.1364 51.3732 12.1364C50.7056 12.1364 50.1531 11.9915 49.7156 11.7017C49.2781 11.4119 49.0011 10.9886 48.8846 10.4318L49.8391 10.1932C49.93 10.5455 50.1019 10.8097 50.3548 10.9858C50.6104 11.1619 50.9442 11.25 51.3562 11.25C51.8249 11.25 52.1971 11.1506 52.4727 10.9517C52.7511 10.75 52.8903 10.5085 52.8903 10.2273C52.8903 10 52.8107 9.80966 52.6516 9.65625C52.4925 9.5 52.2482 9.38352 51.9187 9.30682L50.8278 9.05114C50.2283 8.90909 49.788 8.68892 49.5067 8.39062C49.2283 8.08949 49.0891 7.71307 49.0891 7.26136C49.0891 6.89205 49.1928 6.56534 49.4002 6.28125C49.6104 5.99716 49.896 5.77415 50.2567 5.61222C50.6204 5.45028 51.0323 5.36932 51.4925 5.36932C52.1403 5.36932 52.6488 5.51136 53.0181 5.79545C53.3903 6.07955 53.6545 6.45455 53.8107 6.92045ZM55.4439 12V5.45455H56.4496V12H55.4439ZM55.9553 4.36364C55.7592 4.36364 55.5902 4.29688 55.4482 4.16335C55.3089 4.02983 55.2393 3.86932 55.2393 3.68182C55.2393 3.49432 55.3089 3.33381 55.4482 3.20028C55.5902 3.06676 55.7592 3 55.9553 3C56.1513 3 56.3189 3.06676 56.4581 3.20028C56.6001 3.33381 56.6712 3.49432 56.6712 3.68182C56.6712 3.86932 56.6001 4.02983 56.4581 4.16335C56.3189 4.29688 56.1513 4.36364 55.9553 4.36364ZM60.9506 12.1364C60.3597 12.1364 59.8413 11.9957 59.3952 11.7145C58.9521 11.4332 58.6055 11.0398 58.3555 10.5341C58.1083 10.0284 57.9847 9.4375 57.9847 8.76136C57.9847 8.07955 58.1083 7.48437 58.3555 6.97585C58.6055 6.46733 58.9521 6.07244 59.3952 5.79119C59.8413 5.50994 60.3597 5.36932 60.9506 5.36932C61.5415 5.36932 62.0586 5.50994 62.5018 5.79119C62.9478 6.07244 63.2944 6.46733 63.5415 6.97585C63.7915 7.48437 63.9165 8.07955 63.9165 8.76136C63.9165 9.4375 63.7915 10.0284 63.5415 10.5341C63.2944 11.0398 62.9478 11.4332 62.5018 11.7145C62.0586 11.9957 61.5415 12.1364 60.9506 12.1364ZM60.9506 11.233C61.3995 11.233 61.7688 11.1179 62.0586 10.8878C62.3484 10.6577 62.5629 10.3551 62.7021 9.98011C62.8413 9.60511 62.9109 9.19886 62.9109 8.76136C62.9109 8.32386 62.8413 7.91619 62.7021 7.53835C62.5629 7.16051 62.3484 6.85511 62.0586 6.62216C61.7688 6.3892 61.3995 6.27273 60.9506 6.27273C60.5018 6.27273 60.1325 6.3892 59.8427 6.62216C59.5529 6.85511 59.3384 7.16051 59.1992 7.53835C59.06 7.91619 58.9904 8.32386 58.9904 8.76136C58.9904 9.19886 59.06 9.60511 59.1992 9.98011C59.3384 10.3551 59.5529 10.6577 59.8427 10.8878C60.1325 11.1179 60.5018 11.233 60.9506 11.233ZM66.4574 8.0625V12H65.4517V5.45455H66.4233V6.47727H66.5085C66.6619 6.14489 66.8949 5.87784 67.2074 5.67614C67.5199 5.47159 67.9233 5.36932 68.4176 5.36932C68.8608 5.36932 69.2486 5.46023 69.581 5.64205C69.9134 5.82102 70.1719 6.09375 70.3565 6.46023C70.5412 6.82386 70.6335 7.28409 70.6335 7.84091V12H69.6278V7.90909C69.6278 7.39489 69.4943 6.99432 69.2273 6.70739C68.9602 6.41761 68.5938 6.27273 68.1278 6.27273C67.8068 6.27273 67.5199 6.34233 67.267 6.48153C67.017 6.62074 66.8196 6.82386 66.6747 7.09091C66.5298 7.35795 66.4574 7.68182 66.4574 8.0625ZM78.5053 12.1364C77.9144 12.1364 77.396 11.9957 76.9499 11.7145C76.5067 11.4332 76.1602 11.0398 75.9102 10.5341C75.663 10.0284 75.5394 9.4375 75.5394 8.76136C75.5394 8.07955 75.663 7.48437 75.9102 6.97585C76.1602 6.46733 76.5067 6.07244 76.9499 5.79119C77.396 5.50994 77.9144 5.36932 78.5053 5.36932C79.0962 5.36932 79.6133 5.50994 80.0565 5.79119C80.5025 6.07244 80.8491 6.46733 81.0962 6.97585C81.3462 7.48437 81.4712 8.07955 81.4712 8.76136C81.4712 9.4375 81.3462 10.0284 81.0962 10.5341C80.8491 11.0398 80.5025 11.4332 80.0565 11.7145C79.6133 11.9957 79.0962 12.1364 78.5053 12.1364ZM78.5053 11.233C78.9542 11.233 79.3235 11.1179 79.6133 10.8878C79.9031 10.6577 80.1175 10.3551 80.2567 9.98011C80.396 9.60511 80.4656 9.19886 80.4656 8.76136C80.4656 8.32386 80.396 7.91619 80.2567 7.53835C80.1175 7.16051 79.9031 6.85511 79.6133 6.62216C79.3235 6.3892 78.9542 6.27273 78.5053 6.27273C78.0565 6.27273 77.6871 6.3892 77.3974 6.62216C77.1076 6.85511 76.8931 7.16051 76.7539 7.53835C76.6147 7.91619 76.5451 8.32386 76.5451 8.76136C76.5451 9.19886 76.6147 9.60511 76.7539 9.98011C76.8931 10.3551 77.1076 10.6577 77.3974 10.8878C77.6871 11.1179 78.0565 11.233 78.5053 11.233ZM85.9212 5.45455V6.30682H82.3928V5.45455H85.9212ZM83.4496 12V4.55114C83.4496 4.17614 83.5376 3.86364 83.7138 3.61364C83.8899 3.36364 84.1186 3.17614 84.3999 3.05114C84.6811 2.92614 84.978 2.86364 85.2905 2.86364C85.5376 2.86364 85.7393 2.88352 85.8956 2.9233C86.0518 2.96307 86.1683 3 86.245 3.03409L85.9553 3.90341C85.9041 3.88636 85.8331 3.86506 85.7422 3.83949C85.6541 3.81392 85.5376 3.80114 85.3928 3.80114C85.0604 3.80114 84.8203 3.88494 84.6726 4.05256C84.5277 4.22017 84.4553 4.46591 84.4553 4.78977V12H83.4496ZM92.6317 12.1534C92.217 12.1534 91.8406 12.0753 91.5025 11.919C91.1644 11.7599 90.896 11.5312 90.6971 11.233C90.4982 10.9318 90.3988 10.5682 90.3988 10.142C90.3988 9.76705 90.4727 9.46307 90.6204 9.23011C90.7681 8.99432 90.9656 8.80966 91.2127 8.67614C91.4599 8.54261 91.7326 8.44318 92.0309 8.37784C92.332 8.30966 92.6346 8.25568 92.9386 8.21591C93.3363 8.16477 93.6587 8.12642 93.9059 8.10085C94.1559 8.07244 94.3377 8.02557 94.4513 7.96023C94.5678 7.89489 94.6261 7.78125 94.6261 7.61932V7.58523C94.6261 7.16477 94.511 6.83807 94.2809 6.60511C94.0536 6.37216 93.7085 6.25568 93.2454 6.25568C92.7653 6.25568 92.3888 6.3608 92.1161 6.57102C91.8434 6.78125 91.6516 7.00568 91.5408 7.24432L90.5863 6.90341C90.7567 6.50568 90.984 6.19602 91.2681 5.97443C91.555 5.75 91.8675 5.59375 92.2056 5.50568C92.5465 5.41477 92.8817 5.36932 93.2113 5.36932C93.4215 5.36932 93.663 5.39489 93.9357 5.44602C94.2113 5.49432 94.4769 5.59517 94.7326 5.74858C94.9911 5.90199 95.2056 6.13352 95.3761 6.44318C95.5465 6.75284 95.6317 7.16761 95.6317 7.6875V12H94.6261V11.1136H94.5749C94.5067 11.2557 94.3931 11.4077 94.234 11.5696C94.0749 11.7315 93.8633 11.8693 93.5991 11.983C93.3349 12.0966 93.0124 12.1534 92.6317 12.1534ZM92.7852 11.25C93.1829 11.25 93.5181 11.1719 93.7908 11.0156C94.0664 10.8594 94.2738 10.6577 94.413 10.4105C94.555 10.1634 94.6261 9.90341 94.6261 9.63068V8.71023C94.5835 8.76136 94.4897 8.80824 94.3448 8.85085C94.2028 8.89062 94.038 8.92614 93.8505 8.95739C93.6658 8.9858 93.4854 9.01136 93.3093 9.03409C93.136 9.05398 92.9954 9.07102 92.8874 9.08523C92.6261 9.11932 92.3817 9.17472 92.1545 9.25142C91.93 9.32528 91.7482 9.4375 91.609 9.58807C91.4727 9.7358 91.4045 9.9375 91.4045 10.1932C91.4045 10.5426 91.5337 10.8068 91.7923 10.9858C92.0536 11.1619 92.3846 11.25 92.7852 11.25ZM105.479 6.92045L104.575 7.17614C104.518 7.02557 104.435 6.87926 104.324 6.73722C104.216 6.59233 104.068 6.47301 103.881 6.37926C103.693 6.28551 103.453 6.23864 103.161 6.23864C102.76 6.23864 102.426 6.33097 102.159 6.51562C101.895 6.69744 101.763 6.92898 101.763 7.21023C101.763 7.46023 101.854 7.65767 102.036 7.80256C102.217 7.94744 102.501 8.06818 102.888 8.16477L103.859 8.40341C104.445 8.54545 104.881 8.76278 105.168 9.0554C105.455 9.34517 105.598 9.71875 105.598 10.1761C105.598 10.5511 105.49 10.8864 105.274 11.1818C105.061 11.4773 104.763 11.7102 104.379 11.8807C103.996 12.0511 103.55 12.1364 103.041 12.1364C102.374 12.1364 101.821 11.9915 101.384 11.7017C100.946 11.4119 100.669 10.9886 100.553 10.4318L101.507 10.1932C101.598 10.5455 101.77 10.8097 102.023 10.9858C102.278 11.1619 102.612 11.25 103.024 11.25C103.493 11.25 103.865 11.1506 104.141 10.9517C104.419 10.75 104.558 10.5085 104.558 10.2273C104.558 10 104.479 9.80966 104.32 9.65625C104.161 9.5 103.916 9.38352 103.587 9.30682L102.496 9.05114C101.896 8.90909 101.456 8.68892 101.175 8.39062C100.896 8.08949 100.757 7.71307 100.757 7.26136C100.757 6.89205 100.861 6.56534 101.068 6.28125C101.278 5.99716 101.564 5.77415 101.925 5.61222C102.288 5.45028 102.7 5.36932 103.161 5.36932C103.808 5.36932 104.317 5.51136 104.686 5.79545C105.058 6.07955 105.322 6.45455 105.479 6.92045ZM107.112 12V5.45455H108.118V12H107.112ZM107.623 4.36364C107.427 4.36364 107.258 4.29688 107.116 4.16335C106.977 4.02983 106.907 3.86932 106.907 3.68182C106.907 3.49432 106.977 3.33381 107.116 3.20028C107.258 3.06676 107.427 3 107.623 3C107.819 3 107.987 3.06676 108.126 3.20028C108.268 3.33381 108.339 3.49432 108.339 3.68182C108.339 3.86932 108.268 4.02983 108.126 4.16335C107.987 4.29688 107.819 4.36364 107.623 4.36364ZM109.96 12V5.45455H110.931V6.47727H111.016C111.153 6.12784 111.373 5.85653 111.677 5.66335C111.981 5.46733 112.346 5.36932 112.772 5.36932C113.204 5.36932 113.563 5.46733 113.85 5.66335C114.14 5.85653 114.366 6.12784 114.528 6.47727H114.596C114.763 6.1392 115.015 5.87074 115.35 5.67188C115.685 5.47017 116.087 5.36932 116.556 5.36932C117.141 5.36932 117.62 5.55256 117.992 5.91903C118.364 6.28267 118.55 6.84943 118.55 7.61932V12H117.545V7.61932C117.545 7.13636 117.413 6.79119 117.148 6.58381C116.884 6.37642 116.573 6.27273 116.215 6.27273C115.755 6.27273 115.398 6.41193 115.146 6.69034C114.893 6.96591 114.766 7.31534 114.766 7.73864V12H113.744V7.51705C113.744 7.14489 113.623 6.84517 113.381 6.6179C113.14 6.38778 112.829 6.27273 112.448 6.27273C112.187 6.27273 111.942 6.34233 111.715 6.48153C111.491 6.62074 111.309 6.81392 111.17 7.06108C111.033 7.3054 110.965 7.58807 110.965 7.90909V12H109.96ZM120.389 14.4545V5.45455H121.361V6.49432H121.48C121.554 6.38068 121.656 6.2358 121.787 6.05966C121.92 5.88068 122.111 5.72159 122.358 5.58239C122.608 5.44034 122.946 5.36932 123.372 5.36932C123.923 5.36932 124.409 5.5071 124.83 5.78267C125.25 6.05824 125.578 6.44886 125.814 6.95455C126.05 7.46023 126.168 8.05682 126.168 8.74432C126.168 9.4375 126.05 10.0384 125.814 10.5469C125.578 11.0526 125.251 11.4446 124.834 11.723C124.416 11.9986 123.935 12.1364 123.389 12.1364C122.969 12.1364 122.632 12.0668 122.379 11.9276C122.126 11.7855 121.932 11.625 121.795 11.446C121.659 11.2642 121.554 11.1136 121.48 10.9943H121.395V14.4545H120.389ZM121.378 8.72727C121.378 9.22159 121.45 9.65767 121.595 10.0355C121.74 10.4105 121.952 10.7045 122.23 10.9176C122.509 11.1278 122.849 11.233 123.253 11.233C123.673 11.233 124.024 11.1222 124.305 10.9006C124.589 10.6761 124.803 10.375 124.945 9.99716C125.089 9.61648 125.162 9.19318 125.162 8.72727C125.162 8.26705 125.091 7.85227 124.949 7.48295C124.81 7.1108 124.598 6.81676 124.314 6.60085C124.033 6.3821 123.679 6.27273 123.253 6.27273C122.844 6.27273 122.5 6.37642 122.222 6.58381C121.943 6.78835 121.733 7.07528 121.591 7.4446C121.449 7.81108 121.378 8.23864 121.378 8.72727ZM128.707 3.27273V12H127.702V3.27273H128.707ZM133.294 12.1364C132.663 12.1364 132.119 11.9972 131.662 11.7188C131.207 11.4375 130.856 11.0455 130.609 10.5426C130.365 10.0369 130.243 9.44886 130.243 8.77841C130.243 8.10795 130.365 7.51705 130.609 7.00568C130.856 6.49148 131.2 6.09091 131.64 5.80398C132.083 5.5142 132.6 5.36932 133.191 5.36932C133.532 5.36932 133.869 5.42614 134.201 5.53977C134.534 5.65341 134.836 5.83807 135.109 6.09375C135.382 6.34659 135.599 6.68182 135.761 7.09943C135.923 7.51705 136.004 8.03125 136.004 8.64205V9.06818H130.958V8.19886H134.981C134.981 7.82955 134.907 7.5 134.76 7.21023C134.615 6.92045 134.407 6.69176 134.137 6.52415C133.87 6.35653 133.555 6.27273 133.191 6.27273C132.791 6.27273 132.444 6.37216 132.152 6.57102C131.862 6.76705 131.639 7.02273 131.483 7.33807C131.326 7.65341 131.248 7.99148 131.248 8.35227V8.93182C131.248 9.42614 131.333 9.84517 131.504 10.1889C131.677 10.5298 131.917 10.7898 132.224 10.9688C132.531 11.1449 132.887 11.233 133.294 11.233C133.558 11.233 133.797 11.196 134.01 11.1222C134.225 11.0455 134.412 10.9318 134.568 10.7812C134.724 10.6278 134.845 10.4375 134.93 10.2102L135.902 10.483C135.799 10.8125 135.627 11.1023 135.386 11.3523C135.145 11.5994 134.846 11.7926 134.491 11.9318C134.136 12.0682 133.737 12.1364 133.294 12.1364ZM143.824 5.45455V6.30682H140.295V5.45455H143.824ZM141.352 12V4.55114C141.352 4.17614 141.44 3.86364 141.616 3.61364C141.792 3.36364 142.021 3.17614 142.302 3.05114C142.583 2.92614 142.88 2.86364 143.193 2.86364C143.44 2.86364 143.642 2.88352 143.798 2.9233C143.954 2.96307 144.071 3 144.147 3.03409L143.858 3.90341C143.806 3.88636 143.735 3.86506 143.645 3.83949C143.556 3.81392 143.44 3.80114 143.295 3.80114C142.963 3.80114 142.723 3.88494 142.575 4.05256C142.43 4.22017 142.358 4.46591 142.358 4.78977V12H141.352ZM147.708 12.1364C147.077 12.1364 146.533 11.9972 146.076 11.7188C145.621 11.4375 145.27 11.0455 145.023 10.5426C144.779 10.0369 144.657 9.44886 144.657 8.77841C144.657 8.10795 144.779 7.51705 145.023 7.00568C145.27 6.49148 145.614 6.09091 146.054 5.80398C146.498 5.5142 147.015 5.36932 147.605 5.36932C147.946 5.36932 148.283 5.42614 148.615 5.53977C148.948 5.65341 149.25 5.83807 149.523 6.09375C149.796 6.34659 150.013 6.68182 150.175 7.09943C150.337 7.51705 150.418 8.03125 150.418 8.64205V9.06818H145.373V8.19886H149.395C149.395 7.82955 149.321 7.5 149.174 7.21023C149.029 6.92045 148.821 6.69176 148.551 6.52415C148.284 6.35653 147.969 6.27273 147.605 6.27273C147.205 6.27273 146.858 6.37216 146.566 6.57102C146.276 6.76705 146.053 7.02273 145.897 7.33807C145.74 7.65341 145.662 7.99148 145.662 8.35227V8.93182C145.662 9.42614 145.748 9.84517 145.918 10.1889C146.091 10.5298 146.331 10.7898 146.638 10.9688C146.945 11.1449 147.301 11.233 147.708 11.233C147.972 11.233 148.211 11.196 148.424 11.1222C148.64 11.0455 148.826 10.9318 148.982 10.7812C149.138 10.6278 149.259 10.4375 149.344 10.2102L150.316 10.483C150.213 10.8125 150.042 11.1023 149.8 11.3523C149.559 11.5994 149.26 11.7926 148.905 11.9318C148.55 12.0682 148.151 12.1364 147.708 12.1364ZM153.874 12.1534C153.459 12.1534 153.083 12.0753 152.745 11.919C152.407 11.7599 152.138 11.5312 151.939 11.233C151.74 10.9318 151.641 10.5682 151.641 10.142C151.641 9.76705 151.715 9.46307 151.863 9.23011C152.01 8.99432 152.208 8.80966 152.455 8.67614C152.702 8.54261 152.975 8.44318 153.273 8.37784C153.574 8.30966 153.877 8.25568 154.181 8.21591C154.578 8.16477 154.901 8.12642 155.148 8.10085C155.398 8.07244 155.58 8.02557 155.694 7.96023C155.81 7.89489 155.868 7.78125 155.868 7.61932V7.58523C155.868 7.16477 155.753 6.83807 155.523 6.60511C155.296 6.37216 154.951 6.25568 154.488 6.25568C154.007 6.25568 153.631 6.3608 153.358 6.57102C153.086 6.78125 152.894 7.00568 152.783 7.24432L151.828 6.90341C151.999 6.50568 152.226 6.19602 152.51 5.97443C152.797 5.75 153.11 5.59375 153.448 5.50568C153.789 5.41477 154.124 5.36932 154.453 5.36932C154.664 5.36932 154.905 5.39489 155.178 5.44602C155.453 5.49432 155.719 5.59517 155.975 5.74858C156.233 5.90199 156.448 6.13352 156.618 6.44318C156.789 6.75284 156.874 7.16761 156.874 7.6875V12H155.868V11.1136H155.817C155.749 11.2557 155.635 11.4077 155.476 11.5696C155.317 11.7315 155.105 11.8693 154.841 11.983C154.577 12.0966 154.255 12.1534 153.874 12.1534ZM154.027 11.25C154.425 11.25 154.76 11.1719 155.033 11.0156C155.309 10.8594 155.516 10.6577 155.655 10.4105C155.797 10.1634 155.868 9.90341 155.868 9.63068V8.71023C155.826 8.76136 155.732 8.80824 155.587 8.85085C155.445 8.89062 155.28 8.92614 155.093 8.95739C154.908 8.9858 154.728 9.01136 154.551 9.03409C154.378 9.05398 154.238 9.07102 154.13 9.08523C153.868 9.11932 153.624 9.17472 153.397 9.25142C153.172 9.32528 152.99 9.4375 152.851 9.58807C152.715 9.7358 152.647 9.9375 152.647 10.1932C152.647 10.5426 152.776 10.8068 153.034 10.9858C153.296 11.1619 153.627 11.25 154.027 11.25ZM161.556 5.45455V6.30682H158.164V5.45455H161.556ZM159.153 3.88636H160.158V10.125C160.158 10.4091 160.2 10.6222 160.282 10.7642C160.367 10.9034 160.475 10.9972 160.606 11.0455C160.739 11.0909 160.88 11.1136 161.028 11.1136C161.138 11.1136 161.229 11.108 161.3 11.0966C161.371 11.0824 161.428 11.071 161.471 11.0625L161.675 11.9659C161.607 11.9915 161.512 12.017 161.39 12.0426C161.268 12.071 161.113 12.0852 160.925 12.0852C160.641 12.0852 160.363 12.0241 160.09 11.902C159.82 11.7798 159.596 11.5938 159.417 11.3438C159.241 11.0938 159.153 10.7784 159.153 10.3977V3.88636ZM167.194 9.32386V5.45455H168.2V12H167.194V10.892H167.126C166.972 11.2244 166.734 11.5071 166.41 11.7401C166.086 11.9702 165.677 12.0852 165.183 12.0852C164.773 12.0852 164.41 11.9957 164.092 11.8168C163.773 11.6349 163.523 11.3622 163.342 10.9986C163.16 10.6321 163.069 10.1705 163.069 9.61364V5.45455H164.075V9.54545C164.075 10.0227 164.208 10.4034 164.475 10.6875C164.745 10.9716 165.089 11.1136 165.506 11.1136C165.756 11.1136 166.011 11.0497 166.269 10.9219C166.531 10.794 166.749 10.598 166.925 10.3338C167.104 10.0696 167.194 9.73295 167.194 9.32386ZM170.042 12V5.45455H171.013V6.44318H171.081C171.201 6.11932 171.417 5.85653 171.729 5.65483C172.042 5.45312 172.394 5.35227 172.786 5.35227C172.86 5.35227 172.952 5.35369 173.063 5.35653C173.174 5.35937 173.257 5.36364 173.314 5.36932V6.39205C173.28 6.38352 173.202 6.37074 173.08 6.35369C172.961 6.33381 172.834 6.32386 172.701 6.32386C172.382 6.32386 172.098 6.39062 171.848 6.52415C171.601 6.65483 171.405 6.83665 171.26 7.0696C171.118 7.29972 171.047 7.5625 171.047 7.85795V12H170.042ZM177.051 12.1364C176.421 12.1364 175.877 11.9972 175.419 11.7188C174.965 11.4375 174.614 11.0455 174.367 10.5426C174.123 10.0369 174 9.44886 174 8.77841C174 8.10795 174.123 7.51705 174.367 7.00568C174.614 6.49148 174.958 6.09091 175.398 5.80398C175.841 5.5142 176.358 5.36932 176.949 5.36932C177.29 5.36932 177.627 5.42614 177.959 5.53977C178.292 5.65341 178.594 5.83807 178.867 6.09375C179.14 6.34659 179.357 6.68182 179.519 7.09943C179.681 7.51705 179.762 8.03125 179.762 8.64205V9.06818H174.716V8.19886H178.739C178.739 7.82955 178.665 7.5 178.517 7.21023C178.373 6.92045 178.165 6.69176 177.895 6.52415C177.628 6.35653 177.313 6.27273 176.949 6.27273C176.549 6.27273 176.202 6.37216 175.909 6.57102C175.62 6.76705 175.397 7.02273 175.24 7.33807C175.084 7.65341 175.006 7.99148 175.006 8.35227V8.93182C175.006 9.42614 175.091 9.84517 175.262 10.1889C175.435 10.5298 175.675 10.7898 175.982 10.9688C176.289 11.1449 176.645 11.233 177.051 11.233C177.316 11.233 177.554 11.196 177.767 11.1222C177.983 11.0455 178.169 10.9318 178.326 10.7812C178.482 10.6278 178.603 10.4375 178.688 10.2102L179.659 10.483C179.557 10.8125 179.385 11.1023 179.144 11.3523C178.902 11.5994 178.604 11.7926 178.249 11.9318C177.894 12.0682 177.495 12.1364 177.051 12.1364Z" fill="black"/>
<path d="M133.977 111.273V120H132.955L128.199 113.148H128.114V120H127.057V111.273H128.08L132.852 118.142H132.938V111.273H133.977ZM138.7 120.136C138.069 120.136 137.525 119.997 137.068 119.719C136.613 119.438 136.262 119.045 136.015 118.543C135.771 118.037 135.649 117.449 135.649 116.778C135.649 116.108 135.771 115.517 136.015 115.006C136.262 114.491 136.606 114.091 137.047 113.804C137.49 113.514 138.007 113.369 138.598 113.369C138.939 113.369 139.275 113.426 139.608 113.54C139.94 113.653 140.243 113.838 140.515 114.094C140.788 114.347 141.005 114.682 141.167 115.099C141.329 115.517 141.41 116.031 141.41 116.642V117.068H136.365V116.199H140.387C140.387 115.83 140.314 115.5 140.166 115.21C140.021 114.92 139.814 114.692 139.544 114.524C139.277 114.357 138.961 114.273 138.598 114.273C138.197 114.273 137.85 114.372 137.558 114.571C137.268 114.767 137.045 115.023 136.889 115.338C136.733 115.653 136.654 115.991 136.654 116.352V116.932C136.654 117.426 136.74 117.845 136.91 118.189C137.083 118.53 137.324 118.79 137.63 118.969C137.937 119.145 138.294 119.233 138.7 119.233C138.964 119.233 139.203 119.196 139.416 119.122C139.632 119.045 139.818 118.932 139.974 118.781C140.13 118.628 140.251 118.437 140.336 118.21L141.308 118.483C141.206 118.812 141.034 119.102 140.792 119.352C140.551 119.599 140.252 119.793 139.897 119.932C139.542 120.068 139.143 120.136 138.7 120.136ZM144.423 120L142.429 113.455H143.485L144.9 118.466H144.968L146.366 113.455H147.44L148.821 118.449H148.889L150.304 113.455H151.36L149.366 120H148.377L146.946 114.972H146.843L145.412 120H144.423ZM156.065 120V113.455H157.037V114.443H157.105C157.224 114.119 157.44 113.857 157.752 113.655C158.065 113.453 158.417 113.352 158.809 113.352C158.883 113.352 158.975 113.354 159.086 113.357C159.197 113.359 159.281 113.364 159.338 113.369V114.392C159.304 114.384 159.225 114.371 159.103 114.354C158.984 114.334 158.858 114.324 158.724 114.324C158.406 114.324 158.122 114.391 157.872 114.524C157.625 114.655 157.429 114.837 157.284 115.07C157.142 115.3 157.071 115.562 157.071 115.858V120H156.065ZM163.075 120.136C162.444 120.136 161.9 119.997 161.443 119.719C160.988 119.438 160.637 119.045 160.39 118.543C160.146 118.037 160.024 117.449 160.024 116.778C160.024 116.108 160.146 115.517 160.39 115.006C160.637 114.491 160.981 114.091 161.422 113.804C161.865 113.514 162.382 113.369 162.973 113.369C163.314 113.369 163.65 113.426 163.983 113.54C164.315 113.653 164.618 113.838 164.89 114.094C165.163 114.347 165.38 114.682 165.542 115.099C165.704 115.517 165.785 116.031 165.785 116.642V117.068H160.74V116.199H164.762C164.762 115.83 164.689 115.5 164.541 115.21C164.396 114.92 164.189 114.692 163.919 114.524C163.652 114.357 163.336 114.273 162.973 114.273C162.572 114.273 162.225 114.372 161.933 114.571C161.643 114.767 161.42 115.023 161.264 115.338C161.108 115.653 161.029 115.991 161.029 116.352V116.932C161.029 117.426 161.115 117.845 161.285 118.189C161.458 118.53 161.699 118.79 162.005 118.969C162.312 119.145 162.669 119.233 163.075 119.233C163.339 119.233 163.578 119.196 163.791 119.122C164.007 119.045 164.193 118.932 164.349 118.781C164.505 118.628 164.626 118.437 164.711 118.21L165.683 118.483C165.581 118.812 165.409 119.102 165.167 119.352C164.926 119.599 164.627 119.793 164.272 119.932C163.917 120.068 163.518 120.136 163.075 120.136ZM171.781 122.455V118.994H171.696C171.622 119.114 171.517 119.264 171.38 119.446C171.244 119.625 171.049 119.786 170.797 119.928C170.544 120.067 170.207 120.136 169.787 120.136C169.241 120.136 168.76 119.999 168.342 119.723C167.924 119.445 167.598 119.053 167.362 118.547C167.126 118.038 167.008 117.438 167.008 116.744C167.008 116.057 167.126 115.46 167.362 114.955C167.598 114.449 167.926 114.058 168.346 113.783C168.767 113.507 169.252 113.369 169.804 113.369C170.23 113.369 170.566 113.44 170.814 113.582C171.064 113.722 171.254 113.881 171.385 114.06C171.518 114.236 171.622 114.381 171.696 114.494H171.815V113.455H172.787V122.455H171.781ZM169.923 119.233C170.326 119.233 170.667 119.128 170.946 118.918C171.224 118.705 171.436 118.411 171.581 118.036C171.725 117.658 171.798 117.222 171.798 116.727C171.798 116.239 171.727 115.811 171.585 115.445C171.443 115.075 171.233 114.788 170.954 114.584C170.676 114.376 170.332 114.273 169.923 114.273C169.497 114.273 169.142 114.382 168.858 114.601C168.576 114.817 168.365 115.111 168.223 115.483C168.083 115.852 168.014 116.267 168.014 116.727C168.014 117.193 168.085 117.616 168.227 117.997C168.372 118.375 168.585 118.676 168.866 118.901C169.15 119.122 169.502 119.233 169.923 119.233ZM178.752 117.324V113.455H179.758V120H178.752V118.892H178.684C178.531 119.224 178.292 119.507 177.968 119.74C177.645 119.97 177.235 120.085 176.741 120.085C176.332 120.085 175.968 119.996 175.65 119.817C175.332 119.635 175.082 119.362 174.9 118.999C174.718 118.632 174.627 118.17 174.627 117.614V113.455H175.633V117.545C175.633 118.023 175.767 118.403 176.034 118.688C176.304 118.972 176.647 119.114 177.065 119.114C177.315 119.114 177.569 119.05 177.828 118.922C178.089 118.794 178.308 118.598 178.484 118.334C178.663 118.07 178.752 117.733 178.752 117.324ZM181.6 120V113.455H182.606V120H181.6ZM182.112 112.364C181.915 112.364 181.746 112.297 181.604 112.163C181.465 112.03 181.396 111.869 181.396 111.682C181.396 111.494 181.465 111.334 181.604 111.2C181.746 111.067 181.915 111 182.112 111C182.308 111 182.475 111.067 182.614 111.2C182.756 111.334 182.827 111.494 182.827 111.682C182.827 111.869 182.756 112.03 182.614 112.163C182.475 112.297 182.308 112.364 182.112 112.364ZM184.448 120V113.455H185.419V114.443H185.488C185.607 114.119 185.823 113.857 186.135 113.655C186.448 113.453 186.8 113.352 187.192 113.352C187.266 113.352 187.358 113.354 187.469 113.357C187.58 113.359 187.664 113.364 187.721 113.369V114.392C187.686 114.384 187.608 114.371 187.486 114.354C187.367 114.334 187.24 114.324 187.107 114.324C186.789 114.324 186.505 114.391 186.255 114.524C186.007 114.655 185.811 114.837 185.667 115.07C185.525 115.3 185.453 115.562 185.453 115.858V120H184.448ZM191.458 120.136C190.827 120.136 190.283 119.997 189.826 119.719C189.371 119.438 189.02 119.045 188.773 118.543C188.529 118.037 188.407 117.449 188.407 116.778C188.407 116.108 188.529 115.517 188.773 115.006C189.02 114.491 189.364 114.091 189.804 113.804C190.248 113.514 190.765 113.369 191.355 113.369C191.696 113.369 192.033 113.426 192.365 113.54C192.698 113.653 193 113.838 193.273 114.094C193.546 114.347 193.763 114.682 193.925 115.099C194.087 115.517 194.168 116.031 194.168 116.642V117.068H189.123V116.199H193.145C193.145 115.83 193.071 115.5 192.924 115.21C192.779 114.92 192.571 114.692 192.301 114.524C192.034 114.357 191.719 114.273 191.355 114.273C190.955 114.273 190.608 114.372 190.316 114.571C190.026 114.767 189.803 115.023 189.647 115.338C189.49 115.653 189.412 115.991 189.412 116.352V116.932C189.412 117.426 189.498 117.845 189.668 118.189C189.841 118.53 190.081 118.79 190.388 118.969C190.695 119.145 191.051 119.233 191.458 119.233C191.722 119.233 191.961 119.196 192.174 119.122C192.39 119.045 192.576 118.932 192.732 118.781C192.888 118.628 193.009 118.437 193.094 118.21L194.066 118.483C193.963 118.812 193.792 119.102 193.55 119.352C193.309 119.599 193.01 119.793 192.655 119.932C192.3 120.068 191.901 120.136 191.458 120.136ZM195.698 120V113.455H196.669V114.477H196.755C196.891 114.128 197.111 113.857 197.415 113.663C197.719 113.467 198.084 113.369 198.51 113.369C198.942 113.369 199.301 113.467 199.588 113.663C199.878 113.857 200.104 114.128 200.266 114.477H200.334C200.502 114.139 200.753 113.871 201.088 113.672C201.424 113.47 201.826 113.369 202.294 113.369C202.88 113.369 203.358 113.553 203.73 113.919C204.103 114.283 204.289 114.849 204.289 115.619V120H203.283V115.619C203.283 115.136 203.151 114.791 202.887 114.584C202.623 114.376 202.311 114.273 201.953 114.273C201.493 114.273 201.137 114.412 200.884 114.69C200.631 114.966 200.505 115.315 200.505 115.739V120H199.482V115.517C199.482 115.145 199.361 114.845 199.12 114.618C198.878 114.388 198.567 114.273 198.186 114.273C197.925 114.273 197.681 114.342 197.453 114.482C197.229 114.621 197.047 114.814 196.908 115.061C196.772 115.305 196.703 115.588 196.703 115.909V120H195.698ZM208.872 120.136C208.241 120.136 207.697 119.997 207.24 119.719C206.785 119.438 206.434 119.045 206.187 118.543C205.943 118.037 205.821 117.449 205.821 116.778C205.821 116.108 205.943 115.517 206.187 115.006C206.434 114.491 206.778 114.091 207.218 113.804C207.662 113.514 208.179 113.369 208.77 113.369C209.11 113.369 209.447 113.426 209.779 113.54C210.112 113.653 210.414 113.838 210.687 114.094C210.96 114.347 211.177 114.682 211.339 115.099C211.501 115.517 211.582 116.031 211.582 116.642V117.068H206.537V116.199H210.559C210.559 115.83 210.485 115.5 210.338 115.21C210.193 114.92 209.985 114.692 209.716 114.524C209.449 114.357 209.133 114.273 208.77 114.273C208.369 114.273 208.022 114.372 207.73 114.571C207.44 114.767 207.217 115.023 207.061 115.338C206.904 115.653 206.826 115.991 206.826 116.352V116.932C206.826 117.426 206.912 117.845 207.082 118.189C207.255 118.53 207.495 118.79 207.802 118.969C208.109 119.145 208.466 119.233 208.872 119.233C209.136 119.233 209.375 119.196 209.588 119.122C209.804 119.045 209.99 118.932 210.146 118.781C210.302 118.628 210.423 118.437 210.508 118.21L211.48 118.483C211.377 118.812 211.206 119.102 210.964 119.352C210.723 119.599 210.424 119.793 210.069 119.932C209.714 120.068 209.315 120.136 208.872 120.136ZM214.118 116.062V120H213.112V113.455H214.083V114.477H214.169C214.322 114.145 214.555 113.878 214.868 113.676C215.18 113.472 215.583 113.369 216.078 113.369C216.521 113.369 216.909 113.46 217.241 113.642C217.574 113.821 217.832 114.094 218.017 114.46C218.201 114.824 218.294 115.284 218.294 115.841V120H217.288V115.909C217.288 115.395 217.154 114.994 216.887 114.707C216.62 114.418 216.254 114.273 215.788 114.273C215.467 114.273 215.18 114.342 214.927 114.482C214.677 114.621 214.48 114.824 214.335 115.091C214.19 115.358 214.118 115.682 214.118 116.062ZM222.978 113.455V114.307H219.586V113.455H222.978ZM220.575 111.886H221.58V118.125C221.58 118.409 221.621 118.622 221.704 118.764C221.789 118.903 221.897 118.997 222.028 119.045C222.161 119.091 222.302 119.114 222.45 119.114C222.56 119.114 222.651 119.108 222.722 119.097C222.793 119.082 222.85 119.071 222.893 119.062L223.097 119.966C223.029 119.991 222.934 120.017 222.812 120.043C222.69 120.071 222.535 120.085 222.347 120.085C222.063 120.085 221.785 120.024 221.512 119.902C221.242 119.78 221.018 119.594 220.839 119.344C220.663 119.094 220.575 118.778 220.575 118.398V111.886ZM229.01 114.92L228.107 115.176C228.05 115.026 227.966 114.879 227.855 114.737C227.747 114.592 227.599 114.473 227.412 114.379C227.224 114.286 226.984 114.239 226.692 114.239C226.291 114.239 225.957 114.331 225.69 114.516C225.426 114.697 225.294 114.929 225.294 115.21C225.294 115.46 225.385 115.658 225.567 115.803C225.749 115.947 226.033 116.068 226.419 116.165L227.391 116.403C227.976 116.545 228.412 116.763 228.699 117.055C228.986 117.345 229.129 117.719 229.129 118.176C229.129 118.551 229.021 118.886 228.805 119.182C228.592 119.477 228.294 119.71 227.911 119.881C227.527 120.051 227.081 120.136 226.572 120.136C225.905 120.136 225.352 119.991 224.915 119.702C224.477 119.412 224.2 118.989 224.084 118.432L225.038 118.193C225.129 118.545 225.301 118.81 225.554 118.986C225.81 119.162 226.143 119.25 226.555 119.25C227.024 119.25 227.396 119.151 227.672 118.952C227.95 118.75 228.089 118.509 228.089 118.227C228.089 118 228.01 117.81 227.851 117.656C227.692 117.5 227.447 117.384 227.118 117.307L226.027 117.051C225.428 116.909 224.987 116.689 224.706 116.391C224.428 116.089 224.288 115.713 224.288 115.261C224.288 114.892 224.392 114.565 224.599 114.281C224.81 113.997 225.095 113.774 225.456 113.612C225.82 113.45 226.232 113.369 226.692 113.369C227.339 113.369 227.848 113.511 228.217 113.795C228.589 114.08 228.854 114.455 229.01 114.92Z" fill="black"/>
<path d="M42.1136 215.273V224H41.0568V215.273H42.1136ZM44.0962 224V217.455H45.0678V218.477H45.1531C45.2894 218.128 45.5096 217.857 45.8136 217.663C46.1175 217.467 46.4826 217.369 46.9087 217.369C47.3406 217.369 47.6999 217.467 47.9869 217.663C48.2766 217.857 48.5025 218.128 48.6644 218.477H48.7326C48.9002 218.139 49.1516 217.871 49.4869 217.672C49.8221 217.47 50.2241 217.369 50.6928 217.369C51.2781 217.369 51.7567 217.553 52.1289 217.919C52.5011 218.283 52.6871 218.849 52.6871 219.619V224H51.6815V219.619C51.6815 219.136 51.5494 218.791 51.2852 218.584C51.021 218.376 50.7099 218.273 50.3519 218.273C49.8917 218.273 49.5352 218.412 49.2823 218.69C49.0295 218.966 48.9031 219.315 48.9031 219.739V224H47.8803V219.517C47.8803 219.145 47.7596 218.845 47.5181 218.618C47.2766 218.388 46.9656 218.273 46.5849 218.273C46.3235 218.273 46.0792 218.342 45.8519 218.482C45.6275 218.621 45.4457 218.814 45.3065 219.061C45.1701 219.305 45.1019 219.588 45.1019 219.909V224H44.0962ZM54.5259 226.455V217.455H55.4975V218.494H55.6168C55.6907 218.381 55.793 218.236 55.9237 218.06C56.0572 217.881 56.2475 217.722 56.4947 217.582C56.7447 217.44 57.0827 217.369 57.5089 217.369C58.06 217.369 58.5458 217.507 58.9663 217.783C59.3867 218.058 59.7148 218.449 59.9506 218.955C60.1864 219.46 60.3043 220.057 60.3043 220.744C60.3043 221.438 60.1864 222.038 59.9506 222.547C59.7148 223.053 59.3881 223.445 58.9705 223.723C58.5529 223.999 58.0714 224.136 57.5259 224.136C57.1055 224.136 56.7688 224.067 56.516 223.928C56.2631 223.786 56.0685 223.625 55.9322 223.446C55.7958 223.264 55.6907 223.114 55.6168 222.994H55.5316V226.455H54.5259ZM55.5146 220.727C55.5146 221.222 55.587 221.658 55.7319 222.036C55.8768 222.411 56.0884 222.705 56.3668 222.918C56.6452 223.128 56.9862 223.233 57.3896 223.233C57.81 223.233 58.1609 223.122 58.4421 222.901C58.7262 222.676 58.9393 222.375 59.0813 221.997C59.2262 221.616 59.2987 221.193 59.2987 220.727C59.2987 220.267 59.2276 219.852 59.0856 219.483C58.9464 219.111 58.7347 218.817 58.4506 218.601C58.1694 218.382 57.8157 218.273 57.3896 218.273C56.9805 218.273 56.6367 218.376 56.3583 218.584C56.0799 218.788 55.8697 219.075 55.7276 219.445C55.5856 219.811 55.5146 220.239 55.5146 220.727ZM62.8441 215.273V224H61.8384V215.273H62.8441ZM67.4304 224.136C66.7997 224.136 66.2557 223.997 65.7983 223.719C65.3438 223.438 64.9929 223.045 64.7457 222.543C64.5014 222.037 64.3793 221.449 64.3793 220.778C64.3793 220.108 64.5014 219.517 64.7457 219.006C64.9929 218.491 65.3366 218.091 65.777 217.804C66.2202 217.514 66.7372 217.369 67.3281 217.369C67.669 217.369 68.0057 217.426 68.3381 217.54C68.6705 217.653 68.973 217.838 69.2457 218.094C69.5185 218.347 69.7358 218.682 69.8977 219.099C70.0597 219.517 70.1406 220.031 70.1406 220.642V221.068H65.0952V220.199H69.1179C69.1179 219.83 69.044 219.5 68.8963 219.21C68.7514 218.92 68.544 218.692 68.2741 218.524C68.0071 218.357 67.6918 218.273 67.3281 218.273C66.9276 218.273 66.581 218.372 66.2884 218.571C65.9986 218.767 65.7756 219.023 65.6193 219.338C65.4631 219.653 65.3849 219.991 65.3849 220.352V220.932C65.3849 221.426 65.4702 221.845 65.6406 222.189C65.8139 222.53 66.054 222.79 66.3608 222.969C66.6676 223.145 67.0241 223.233 67.4304 223.233C67.6946 223.233 67.9332 223.196 68.1463 223.122C68.3622 223.045 68.5483 222.932 68.7045 222.781C68.8608 222.628 68.9815 222.437 69.0668 222.21L70.0384 222.483C69.9361 222.812 69.7642 223.102 69.5227 223.352C69.2813 223.599 68.983 223.793 68.6278 223.932C68.2727 224.068 67.8736 224.136 67.4304 224.136ZM71.6705 224V217.455H72.642V218.477H72.7273C72.8636 218.128 73.0838 217.857 73.3878 217.663C73.6918 217.467 74.0568 217.369 74.483 217.369C74.9148 217.369 75.2741 217.467 75.5611 217.663C75.8509 217.857 76.0767 218.128 76.2386 218.477H76.3068C76.4744 218.139 76.7259 217.871 77.0611 217.672C77.3963 217.47 77.7983 217.369 78.267 217.369C78.8523 217.369 79.331 217.553 79.7031 217.919C80.0753 218.283 80.2614 218.849 80.2614 219.619V224H79.2557V219.619C79.2557 219.136 79.1236 218.791 78.8594 218.584C78.5952 218.376 78.2841 218.273 77.9261 218.273C77.4659 218.273 77.1094 218.412 76.8565 218.69C76.6037 218.966 76.4773 219.315 76.4773 219.739V224H75.4545V219.517C75.4545 219.145 75.3338 218.845 75.0923 218.618C74.8509 218.388 74.5398 218.273 74.1591 218.273C73.8977 218.273 73.6534 218.342 73.4261 218.482C73.2017 218.621 73.0199 218.814 72.8807 219.061C72.7443 219.305 72.6761 219.588 72.6761 219.909V224H71.6705ZM84.8445 224.136C84.2138 224.136 83.6697 223.997 83.2124 223.719C82.7578 223.438 82.407 223.045 82.1598 222.543C81.9155 222.037 81.7933 221.449 81.7933 220.778C81.7933 220.108 81.9155 219.517 82.1598 219.006C82.407 218.491 82.7507 218.091 83.1911 217.804C83.6342 217.514 84.1513 217.369 84.7422 217.369C85.0831 217.369 85.4197 217.426 85.7521 217.54C86.0845 217.653 86.3871 217.838 86.6598 218.094C86.9325 218.347 87.1499 218.682 87.3118 219.099C87.4737 219.517 87.5547 220.031 87.5547 220.642V221.068H82.5092V220.199H86.532C86.532 219.83 86.4581 219.5 86.3104 219.21C86.1655 218.92 85.9581 218.692 85.6882 218.524C85.4212 218.357 85.1058 218.273 84.7422 218.273C84.3416 218.273 83.995 218.372 83.7024 218.571C83.4126 218.767 83.1896 219.023 83.0334 219.338C82.8771 219.653 82.799 219.991 82.799 220.352V220.932C82.799 221.426 82.8842 221.845 83.0547 222.189C83.228 222.53 83.468 222.79 83.7749 222.969C84.0817 223.145 84.4382 223.233 84.8445 223.233C85.1087 223.233 85.3473 223.196 85.5604 223.122C85.7763 223.045 85.9624 222.932 86.1186 222.781C86.2749 222.628 86.3956 222.437 86.4808 222.21L87.4524 222.483C87.3501 222.812 87.1783 223.102 86.9368 223.352C86.6953 223.599 86.397 223.793 86.0419 223.932C85.6868 224.068 85.2876 224.136 84.8445 224.136ZM90.0902 220.062V224H89.0845V217.455H90.0561V218.477H90.1413C90.2947 218.145 90.5277 217.878 90.8402 217.676C91.1527 217.472 91.5561 217.369 92.0504 217.369C92.4936 217.369 92.8814 217.46 93.2138 217.642C93.5462 217.821 93.8047 218.094 93.9893 218.46C94.174 218.824 94.2663 219.284 94.2663 219.841V224H93.2607V219.909C93.2607 219.395 93.1271 218.994 92.8601 218.707C92.593 218.418 92.2266 218.273 91.7607 218.273C91.4396 218.273 91.1527 218.342 90.8999 218.482C90.6499 218.621 90.4524 218.824 90.3075 219.091C90.1626 219.358 90.0902 219.682 90.0902 220.062ZM98.9506 217.455V218.307H95.5586V217.455H98.9506ZM96.5472 215.886H97.5529V222.125C97.5529 222.409 97.5941 222.622 97.6765 222.764C97.7617 222.903 97.8697 222.997 98.0004 223.045C98.1339 223.091 98.2745 223.114 98.4222 223.114C98.533 223.114 98.6239 223.108 98.695 223.097C98.766 223.082 98.8228 223.071 98.8654 223.062L99.07 223.966C99.0018 223.991 98.9066 224.017 98.7844 224.043C98.6623 224.071 98.5075 224.085 98.32 224.085C98.0359 224.085 97.7575 224.024 97.4847 223.902C97.2148 223.78 96.9904 223.594 96.8114 223.344C96.6353 223.094 96.5472 222.778 96.5472 222.398V215.886ZM102.39 224.153C101.975 224.153 101.598 224.075 101.26 223.919C100.922 223.76 100.654 223.531 100.455 223.233C100.256 222.932 100.157 222.568 100.157 222.142C100.157 221.767 100.23 221.463 100.378 221.23C100.526 220.994 100.723 220.81 100.971 220.676C101.218 220.543 101.49 220.443 101.789 220.378C102.09 220.31 102.392 220.256 102.696 220.216C103.094 220.165 103.417 220.126 103.664 220.101C103.914 220.072 104.096 220.026 104.209 219.96C104.326 219.895 104.384 219.781 104.384 219.619V219.585C104.384 219.165 104.269 218.838 104.039 218.605C103.811 218.372 103.466 218.256 103.003 218.256C102.523 218.256 102.147 218.361 101.874 218.571C101.601 218.781 101.409 219.006 101.299 219.244L100.344 218.903C100.515 218.506 100.742 218.196 101.026 217.974C101.313 217.75 101.625 217.594 101.963 217.506C102.304 217.415 102.64 217.369 102.969 217.369C103.179 217.369 103.421 217.395 103.694 217.446C103.969 217.494 104.235 217.595 104.49 217.749C104.749 217.902 104.963 218.134 105.134 218.443C105.304 218.753 105.39 219.168 105.39 219.688V224H104.384V223.114H104.333C104.265 223.256 104.151 223.408 103.992 223.57C103.833 223.732 103.621 223.869 103.357 223.983C103.093 224.097 102.77 224.153 102.39 224.153ZM102.543 223.25C102.941 223.25 103.276 223.172 103.549 223.016C103.824 222.859 104.032 222.658 104.171 222.411C104.313 222.163 104.384 221.903 104.384 221.631V220.71C104.341 220.761 104.248 220.808 104.103 220.851C103.961 220.891 103.796 220.926 103.608 220.957C103.424 220.986 103.243 221.011 103.067 221.034C102.894 221.054 102.753 221.071 102.645 221.085C102.384 221.119 102.14 221.175 101.912 221.251C101.688 221.325 101.506 221.437 101.367 221.588C101.23 221.736 101.162 221.937 101.162 222.193C101.162 222.543 101.292 222.807 101.55 222.986C101.811 223.162 102.142 223.25 102.543 223.25ZM110.072 217.455V218.307H106.68V217.455H110.072ZM107.668 215.886H108.674V222.125C108.674 222.409 108.715 222.622 108.798 222.764C108.883 222.903 108.991 222.997 109.121 223.045C109.255 223.091 109.396 223.114 109.543 223.114C109.654 223.114 109.745 223.108 109.816 223.097C109.887 223.082 109.944 223.071 109.987 223.062L110.191 223.966C110.123 223.991 110.028 224.017 109.906 224.043C109.783 224.071 109.629 224.085 109.441 224.085C109.157 224.085 108.879 224.024 108.606 223.902C108.336 223.78 108.112 223.594 107.933 223.344C107.756 223.094 107.668 222.778 107.668 222.398V215.886ZM111.585 224V217.455H112.59V224H111.585ZM112.096 216.364C111.9 216.364 111.731 216.297 111.589 216.163C111.45 216.03 111.38 215.869 111.38 215.682C111.38 215.494 111.45 215.334 111.589 215.2C111.731 215.067 111.9 215 112.096 215C112.292 215 112.46 215.067 112.599 215.2C112.741 215.334 112.812 215.494 112.812 215.682C112.812 215.869 112.741 216.03 112.599 216.163C112.46 216.297 112.292 216.364 112.096 216.364ZM117.091 224.136C116.5 224.136 115.982 223.996 115.536 223.714C115.093 223.433 114.746 223.04 114.496 222.534C114.249 222.028 114.125 221.437 114.125 220.761C114.125 220.08 114.249 219.484 114.496 218.976C114.746 218.467 115.093 218.072 115.536 217.791C115.982 217.51 116.5 217.369 117.091 217.369C117.682 217.369 118.199 217.51 118.642 217.791C119.088 218.072 119.435 218.467 119.682 218.976C119.932 219.484 120.057 220.08 120.057 220.761C120.057 221.437 119.932 222.028 119.682 222.534C119.435 223.04 119.088 223.433 118.642 223.714C118.199 223.996 117.682 224.136 117.091 224.136ZM117.091 223.233C117.54 223.233 117.909 223.118 118.199 222.888C118.489 222.658 118.703 222.355 118.843 221.98C118.982 221.605 119.051 221.199 119.051 220.761C119.051 220.324 118.982 219.916 118.843 219.538C118.703 219.161 118.489 218.855 118.199 218.622C117.909 218.389 117.54 218.273 117.091 218.273C116.642 218.273 116.273 218.389 115.983 218.622C115.694 218.855 115.479 219.161 115.34 219.538C115.201 219.916 115.131 220.324 115.131 220.761C115.131 221.199 115.201 221.605 115.34 221.98C115.479 222.355 115.694 222.658 115.983 222.888C116.273 223.118 116.642 223.233 117.091 223.233ZM122.598 220.062V224H121.592V217.455H122.564V218.477H122.649C122.803 218.145 123.036 217.878 123.348 217.676C123.661 217.472 124.064 217.369 124.558 217.369C125.001 217.369 125.389 217.46 125.722 217.642C126.054 217.821 126.313 218.094 126.497 218.46C126.682 218.824 126.774 219.284 126.774 219.841V224H125.768V219.909C125.768 219.395 125.635 218.994 125.368 218.707C125.101 218.418 124.734 218.273 124.268 218.273C123.947 218.273 123.661 218.342 123.408 218.482C123.158 218.621 122.96 218.824 122.815 219.091C122.67 219.358 122.598 219.682 122.598 220.062Z" fill="black"/>
<path d="M172.794 95.9786C173.335 96.0922 173.865 95.7461 173.979 95.2056L175.829 86.3979C175.943 85.8574 175.596 85.3272 175.056 85.2136C174.515 85.1001 173.985 85.4462 173.872 85.9867L172.227 93.8158L164.398 92.171C163.857 92.0575 163.327 92.4036 163.214 92.944C163.1 93.4845 163.446 94.0147 163.987 94.1283L172.794 95.9786ZM125.163 23.5466L172.163 95.5466L173.837 94.4534L126.837 22.4534L125.163 23.5466Z" fill="black"/>
<path d="M218 224L218 225L219 225L219 224L218 224ZM156.293 223.293C155.902 223.683 155.902 224.317 156.293 224.707L162.657 231.071C163.047 231.462 163.68 231.462 164.071 231.071C164.461 230.681 164.461 230.047 164.071 229.657L158.414 224L164.071 218.343C164.461 217.953 164.461 217.32 164.071 216.929C163.68 216.538 163.047 216.538 162.657 216.929L156.293 223.293ZM217 140L217 224L219 224L219 140L217 140ZM218 223L157 223L157 225L218 225L218 223Z" fill="black"/>
<path d="M40.3578 114.841L40.3655 113.841L39.3655 113.833L39.3579 114.833L40.3578 114.841ZM102.058 116.02C102.451 115.632 102.456 114.999 102.069 114.606L95.7534 108.193C95.3659 107.8 94.7328 107.795 94.3393 108.183C93.9458 108.57 93.9409 109.203 94.3284 109.597L99.9419 115.297L94.2419 120.91C93.8484 121.298 93.8436 121.931 94.2311 122.324C94.6186 122.718 95.2518 122.723 95.6453 122.335L102.058 116.02ZM40.7153 198.846L41.3578 114.849L39.3579 114.833L38.7154 198.831L40.7153 198.846ZM40.3502 115.841L101.348 116.307L101.364 114.307L40.3655 113.841L40.3502 115.841Z" fill="black"/>
</svg>
